<?xml version="1.0" encoding="UTF-8"?>
<svg viewBox="0 0 88.16 89.31" xmlns="http://www.w3.org/2000/svg">
<defs>
<style>.cls-1{fill:#5fa7de;}</style>
</defs>
<g data-name="Layer 2">
<path class="cls-1" d="M23.68,31c0-7.63-5.3-13.82-11.84-13.82S0,23.39,0,31,5.3,44.83,11.84,44.83,23.68,38.65,23.68,31Zm20.4,0c7.34,0,13.29-6.94,13.29-15.51S51.42,0,44.08,0,30.79,6.94,30.79,15.51,36.74,31,44.08,31Zm.18,10.31c-17.81,0-32.42,20.12-32.42,34.5,0,20.93,14.43,11.23,32.24,11.23s32.24,9.7,32.24-11.23C76.32,61.45,62.06,41.33,44.26,41.33ZM76.32,17.2c-6.54,0-11.84,6.19-11.84,13.82s5.3,13.81,11.84,13.81S88.16,38.65,88.16,31,82.86,17.2,76.32,17.2Z"/>
</g>
</svg>
