<?xml version="1.0" encoding="UTF-8"?>
<svg viewBox="0 0 174.28 222.85" xmlns="http://www.w3.org/2000/svg" xmlns:xlink="http://www.w3.org/1999/xlink">
    <defs>
        <style>.cls-1,.cls-23,.cls-4{fill:none;}.cls-2{isolation:isolate;}.cls-3{fill:url(#ai);}.cls-4{stroke-width:0.75px;stroke:url(#aj);}.cls-5{fill:#b6fffb;fill-opacity:0.3;}.cls-6{fill:url(#i);}.cls-7{fill:url(#h);}.cls-8{fill:url(#g);}.cls-9{stroke:#fff;stroke-width:1.49px;fill:url(#ak);}.cls-10{clip-path:url(#e);}.cls-11{opacity:0.48;}.cls-12,.cls-13,.cls-15,.cls-17{fill:#fff;}.cls-12{opacity:0.1;}.cls-13,.cls-42,.cls-43,.cls-44,.cls-45{opacity:0.42;}.cls-14{opacity:0.4;}.cls-15{opacity:0.61;}.cls-16{fill-opacity:0.5;fill:url(#f);}.cls-18{opacity:0.26;mix-blend-mode:color-dodge;fill:url(#ah);}.cls-19{fill:url(#j);}.cls-20,.cls-25,.cls-26,.cls-32,.cls-34,.cls-36,.cls-38{opacity:0.7;}.cls-20{fill:url(#a);}.cls-21{fill:#c21f37;opacity:0.62;}.cls-22{fill:url(#k);}.cls-23{stroke:#9c003f;stroke-linecap:round;stroke-linejoin:round;stroke-width:2.03px;}.cls-24{fill:url(#l);}.cls-25{fill:url(#c);}.cls-26{fill:url(#m);}.cls-27,.cls-28,.cls-29,.cls-30{opacity:0.27;}.cls-27{fill:url(#d);}.cls-28{fill:url(#ac);}.cls-29{fill:url(#n);}.cls-30{fill:url(#ab);}.cls-31,.cls-33,.cls-35,.cls-37,.cls-40{opacity:0.57;}.cls-31{fill:url(#b);}.cls-32{fill:url(#aa);}.cls-33{fill:url(#u);}.cls-34{fill:url(#z);}.cls-35{fill:url(#t);}.cls-36{fill:url(#y);}.cls-37{fill:url(#s);}.cls-38{fill:url(#x);}.cls-39,.cls-46,.cls-47{opacity:0.31;}.cls-39{fill:url(#w);}.cls-40{fill:url(#r);}.cls-41{opacity:0.35;fill:url(#v);}.cls-42{fill:url(#q);}.cls-43{fill:url(#ag);}.cls-44{fill:url(#p);}.cls-45{fill:url(#af);}.cls-46{fill:url(#o);}.cls-47{fill:url(#ae);}.cls-48{fill:url(#ad);}.cls-49{fill:#d600e0;mix-blend-mode:multiply;}</style>
        <linearGradient id="ai" x1="85.87" x2="85.87" y1="2892.2" y2="3097.6" gradientTransform="matrix(1 0 0 -1 0 3115.1)" gradientUnits="userSpaceOnUse">
            <stop stop-color="#d2dfe8" offset="0"/>
            <stop stop-color="#fff" offset="1"/>
        </linearGradient>
        <linearGradient id="aj" x1="85.87" x2="85.87" y1="3097.6" y2="2892.2" gradientTransform="matrix(1 0 0 -1 0 3115.1)" gradientUnits="userSpaceOnUse">
            <stop stop-color="#fff" offset="0"/>
            <stop stop-color="#fff" stop-opacity="0" offset=".7"/>
        </linearGradient>
        <linearGradient id="i" x1="86.25" x2="86.25" y1="2902.7" y2="3087.8" gradientTransform="matrix(1 0 0 -1 0 3115.1)" gradientUnits="userSpaceOnUse">
            <stop stop-color="#8bb6e8" offset="0"/>
            <stop stop-color="#91b9e9" offset=".02"/>
            <stop stop-color="#b2cff0" offset=".14"/>
            <stop stop-color="#cee0f5" offset=".27"/>
            <stop stop-color="#e4eefa" offset=".41"/>
            <stop stop-color="#f3f8fd" offset=".56"/>
            <stop stop-color="#fcfdfe" offset=".74"/>
            <stop stop-color="#fff" offset="1"/>
        </linearGradient>
        <linearGradient id="h" x1="86.25" x2="86.25" y1="2902.7" y2="3087.8" gradientTransform="matrix(1 0 0 -1 0 3115.1)" gradientUnits="userSpaceOnUse">
            <stop stop-color="#fff" offset="0"/>
            <stop stop-color="#03dbe0" stop-opacity="0" offset="0"/>
            <stop stop-color="#0e84bf" offset="1"/>
        </linearGradient>
        <linearGradient id="g" x1="86.25" x2="86.25" y1="2902.7" y2="3087.8" gradientTransform="matrix(1 0 0 -1 0 3115.1)" gradientUnits="userSpaceOnUse">
            <stop stop-color="#45657b" stop-opacity="0" offset="0"/>
            <stop stop-color="#4e97ed" offset="1"/>
        </linearGradient>
        <linearGradient id="ak" x1="85.87" x2="85.87" y1="3114.3" y2="3073.7" gradientTransform="matrix(1 0 0 -1 0 3115.1)" gradientUnits="userSpaceOnUse">
            <stop stop-color="#fff" offset="0"/>
            <stop stop-color="#03dbe0" offset="0"/>
            <stop stop-color="#0e84bf" offset="1"/>
        </linearGradient>
        <clipPath id="e">
            <path class="cls-1" d="M19.45,25.07h133.6A12.12,12.12,0,0,1,165,37.35V203.07a12.11,12.11,0,0,1-11.95,12.28H19.45A12.11,12.11,0,0,1,7.5,203.07V37.35A12.12,12.12,0,0,1,19.45,25.07Z"/>
        </clipPath>
        <radialGradient id="f" cx="539.06" cy="1971.8" r=".68" gradientTransform="matrix(0 13.04 98.4 0 -193940 -6841.1)" gradientUnits="userSpaceOnUse">
            <stop stop-color="#3255a8" offset=".38"/>
            <stop stop-color="#a0a0ff" stop-opacity="0" offset="1"/>
        </radialGradient>
        <radialGradient id="ah" cx="89.64" cy="536.52" r="60.66" gradientTransform="translate(0 -469.32) scale(1 1.08)" gradientUnits="userSpaceOnUse">
            <stop stop-color="#fff" offset="0"/>
            <stop stop-color="#fff" stop-opacity=".69" offset=".26"/>
            <stop stop-color="#fff" stop-opacity=".4" offset=".52"/>
            <stop stop-color="#fff" stop-opacity=".18" offset=".75"/>
            <stop stop-color="#fff" stop-opacity=".05" offset=".91"/>
            <stop stop-color="#fff" stop-opacity="0" offset="1"/>
        </radialGradient>
        <linearGradient id="j" x1="56.91" x2="116.81" y1="201.16" y2="104.26" gradientUnits="userSpaceOnUse">
            <stop stop-color="#820000" offset="0"/>
            <stop stop-color="#990d1f" offset=".15"/>
            <stop stop-color="#d22c6d" offset=".47"/>
            <stop stop-color="#ff45ab" offset=".71"/>
        </linearGradient>
        <linearGradient id="a" x1="-1.19" x2="184.61" y1="128.25" y2="169.46" gradientUnits="userSpaceOnUse">
            <stop stop-color="#ffd754" offset=".23"/>
            <stop stop-color="#ffb64f" stop-opacity="0" offset="1"/>
        </linearGradient>
        <linearGradient id="k" x1="87.67" x2="71.65" y1="155.81" y2="200.83" gradientUnits="userSpaceOnUse">
            <stop stop-color="#ff546e" offset=".29"/>
            <stop stop-color="#dc2c35" offset=".73"/>
            <stop stop-color="#c91616" offset="1"/>
        </linearGradient>
        <linearGradient id="l" x1="85.66" x2="83.75" y1="122.25" y2="179.85" gradientUnits="userSpaceOnUse">
            <stop stop-color="#990505" offset=".02"/>
            <stop stop-color="#a90824" offset=".15"/>
            <stop stop-color="#d20f73" offset=".43"/>
            <stop stop-color="#ff17c9" offset=".71"/>
        </linearGradient>
        <linearGradient id="c" x1="28.2" x2="62.66" y1="147.4" y2="146.77" gradientUnits="userSpaceOnUse">
            <stop stop-color="#fff" offset=".25"/>
            <stop stop-color="#f28aec" stop-opacity="0" offset="1"/>
        </linearGradient>
        <linearGradient id="m" x1="1647.4" x2="1681.9" y1="199.39" y2="198.75" gradientTransform="matrix(-1 -.07 -.07 1 1800 63.72)" xlink:href="#c"/>
        <linearGradient id="d" x1="101.84" x2="100.82" y1="159.28" y2="183.95" gradientUnits="userSpaceOnUse">
            <stop stop-color="#99003d" offset=".3"/>
            <stop stop-color="#ff4fb9" stop-opacity="0" offset="1"/>
        </linearGradient>
        <linearGradient id="ac" x1="98.79" x2="105.35" y1="169.84" y2="171.3" xlink:href="#a"/>
        <linearGradient id="n" x1="90.12" x2="89.17" y1="161.29" y2="184.33" xlink:href="#d"/>
        <linearGradient id="ab" x1="87.28" x2="93.4" y1="171.16" y2="172.51" xlink:href="#a"/>
        <linearGradient id="b" x1="123.19" x2="122.17" y1="159.17" y2="183.84" gradientUnits="userSpaceOnUse">
            <stop stop-color="#99003d" offset="0"/>
            <stop stop-color="#ff4fb9" stop-opacity="0" offset="1"/>
        </linearGradient>
        <linearGradient id="aa" x1="120.32" x2="126.87" y1="165.43" y2="166.88" xlink:href="#a"/>
        <linearGradient id="u" x1="139.87" x2="138.85" y1="159.86" y2="184.53" xlink:href="#b"/>
        <linearGradient id="z" x1="138.01" x2="142.76" y1="159.01" y2="160.06" xlink:href="#a"/>
        <linearGradient id="t" x1="132.63" x2="131.61" y1="159.56" y2="184.23" xlink:href="#b"/>
        <linearGradient id="y" x1="130.63" x2="135.71" y1="163.94" y2="165.07" xlink:href="#a"/>
        <linearGradient id="s" x1="111.93" x2="110.91" y1="158.71" y2="183.38" xlink:href="#b"/>
        <linearGradient id="x" x1="109.67" x2="114.75" y1="169.23" y2="170.36" xlink:href="#a"/>
        <linearGradient id="w" x1="1384" x2="1390.6" y1="128.38" y2="129.83" gradientTransform="matrix(-1 .06 .06 1 1451.9 -46.89)" xlink:href="#a"/>
        <linearGradient id="r" x1="1408.3" x2="1407.3" y1="117.71" y2="142.38" gradientTransform="matrix(-1 .06 .06 1 1451.9 -46.89)" xlink:href="#b"/>
        <linearGradient id="v" x1="1405.5" x2="1412" y1="123.97" y2="125.42" gradientTransform="matrix(-1 .06 .06 1 1451.9 -46.89)" xlink:href="#a"/>
        <linearGradient id="q" x1="1425" x2="1424" y1="118.39" y2="143.06" gradientTransform="matrix(-1 .06 .06 1 1451.9 -46.89)" xlink:href="#b"/>
        <linearGradient id="ag" x1="1423.2" x2="1427.9" y1="117.55" y2="118.6" gradientTransform="matrix(-1 .06 .06 1 1451.9 -46.89)" xlink:href="#a"/>
        <linearGradient id="p" x1="1417.8" x2="1416.8" y1="118.1" y2="142.77" gradientTransform="matrix(-1 .06 .06 1 1451.9 -46.89)" xlink:href="#b"/>
        <linearGradient id="af" x1="1415.8" x2="1420.8" y1="122.48" y2="123.6" gradientTransform="matrix(-1 .06 .06 1 1451.9 -46.89)" xlink:href="#a"/>
        <linearGradient id="o" x1="1397" x2="1395.7" y1="114" y2="145.17" gradientTransform="matrix(-1 .06 .06 1 1451.9 -46.89)" xlink:href="#b"/>
        <linearGradient id="ae" x1="1394.2" x2="1400.6" y1="127.3" y2="128.72" gradientTransform="matrix(-1 .06 .06 1 1451.9 -46.89)" xlink:href="#a"/>
        <linearGradient id="ad" x1="108.13" x2="109.28" y1="100.05" y2="173.3" xlink:href="#a"/>
    </defs>
    <g class="cls-2">
        <g>
            <g>
                <rect class="cls-3" y="17.49" width="171.75" height="205.36" rx="11.95"/>
                <rect class="cls-4" x=".37" y="17.86" width="171" height="204.61" rx="11.58"/>
                <path class="cls-5" d="M0,29.44a12,12,0,0,1,12-12H159.8a12,12,0,0,1,11.95,12v84.77a12,12,0,0,1-11.95,12H12A12,12,0,0,1,0,114.21Z"/>
                <rect class="cls-6" x="7.5" y="27.23" width="157.5" height="185.12" rx="11.95"/>
                <rect class="cls-7" x="7.5" y="27.23" width="157.5" height="185.12" rx="11.95"/>
                <rect class="cls-8" x="7.5" y="27.23" width="157.5" height="185.12" rx="11.95"/>
                <path class="cls-9" d="M74.93.75,97.38,1l11.37,20.32-11.37,20h-23L63,20.78Z"/>
                <g class="cls-10">
                    <g class="cls-11">
                        <path class="cls-12" d="M166.42,21.77c-41.64,4.06-45.7,42.77-45.7,42.77-19.19-3.61-7.1-35.45-7.1-35.45C79.31,26.93,67.68,63.77,67.68,63.77c-27.78-8-18.87-42.91-18.87-42.91C22,21.77,8.65,38.78.44,54.09l.8,57.46C12.66,97.39,31,82.76,55.76,88c0,0-16.71,33.81,11.07,41.82,0,0,11.63-36.85,45.94-34.69,0,0-12.09,31.85,7.1,35.46,0,0,5.61-35.93,47.24-40,0,0-10.26,30,7.17,39.17V62.13C155.86,54.87,166.42,21.77,166.42,21.77Z"/>
                        <path class="cls-13" d="m6.74 212.41h148.26a18.56 18.56 0 0 0 13-5.41c-8.45-16.82-1.94-42.66-1.94-42.66-41.64 4.06-51.66 45-51.66 45-19.19-3.62-7.1-35.46-7.1-35.46-34.3-2.15-45.91 34.69-45.91 34.69-27.78-8-11.07-41.81-11.07-41.81-21.18-4.5-37.62 5.51-49.08 17.35v22.45a5.68 5.68 0 0 0 5.5 5.85z"/>
                        <g class="cls-14">
                            <path class="cls-15" d="M162.75,210.69l-.45.2Z"/>
                            <path class="cls-15" d="M160.14,211.67l-.44.13Z"/>
                            <path class="cls-15" d="M161.9,211.06l-.45.18Z"/>
                            <path class="cls-15" d="M161,211.39l-.45.15Z"/>
                            <path class="cls-15" d="m156.31 212.36h-0.32z"/>
                            <path class="cls-15" d="M159.23,211.91l-.44.1Z"/>
                            <path class="cls-15" d="M158.29,212.11l-.42.07Z"/>
                            <path class="cls-15" d="M157.33,212.26l-.39.05Z"/>
                            <path class="cls-15" d="M167.36,207.66l-.49.41Z"/>
                            <path class="cls-15" d="m166.65 208.25c-0.15 0.13-0.31 0.25-0.47 0.37 0.16-0.12 0.32-0.24 0.47-0.37z"/>
                            <path class="cls-15" d="M163.58,210.28l-.45.23Z"/>
                            <path class="cls-15" d="m167.11 90.62c-41.63 4.07-47.24 40-47.24 40-19.19-3.61-7.1-35.46-7.1-35.46-34.31-2.16-45.94 34.69-45.94 34.69-27.78-8.01-11.07-41.85-11.07-41.85-24.76-5.24-43.1 9.39-54.52 23.55v72.56c11.46-11.84 27.9-21.85 49.08-17.35 0 0-16.71 33.81 11.07 41.81 0 0 11.63-36.84 45.94-34.68 0 0-12.09 31.84 7.1 35.46 0 0 10-40.92 51.66-45 0 0-6.51 25.84 1.94 42.66a21 21 0 0 0 6.25-15.01v-62.21c-17.34-13.45-7.17-39.17-7.17-39.17z"/>
                            <path class="cls-15" d="M168,207l-.52.49Z"/>
                            <path class="cls-15" d="M164.39,209.83l-.46.26Z"/>
                            <path class="cls-15" d="M165.92,208.81l-.46.33Z"/>
                            <path class="cls-15" d="M165.17,209.34l-.47.29Z"/>
                        </g>
                    </g>
                </g>
                <ellipse class="cls-16" cx="84.33" cy="190.76" rx="67.28" ry="8.92"/>
                <path class="cls-17" d="m90.1 11.27v19.6h-4.53v-16h-3.92v-3.6z"/>
            </g>
            <g>
                <ellipse class="cls-18" cx="89.64" cy="111.33" rx="60.66" ry="68.3"/>
                <path class="cls-19" d="m144.64 154.74c0.68 16.68-26.35 30.23-58.85 30.23s-58.85-13.53-58.85-30.23c0-19.36 26.35-30.23 58.85-30.23s57.99 9.15 58.85 30.23z"/>
                <path class="cls-20" d="M144.64,154.74c-.86-21.08-26.35-30.23-58.85-30.23s-58.85,10.87-58.85,30.23a16.4,16.4,0,0,0,1.38,6.51c.31-5.92,2.51-15.46,13.31-16.05,15.74-.86,16.31,7.44,37,6.06,19.93-1.33,40.82-2.74,46.35-8.83a61.85,61.85,0,0,1-16.78,13.85c-11.16,6.28,5.81,6.95,10.3,8.28s-.67,5.06-2.1,5.54c-.5.16,3,3.91,8.16,7.48C137.11,172,145,163.86,144.64,154.74Zm-19.16-12.92a1,1,0,0,1,.08-.11Z"/>
                <path class="cls-21" d="m111.27 141c-1.9 2.13-18.65-3.33-29.53-3.33s-25 9.37-25 1.9c0-2.84 10.18-11.67 27.57-11.66 19.33-0.03 32.17 7.21 26.96 13.09z"/>
                <path class="cls-22" d="m144.41 158c-19 15.49-43.39 15.67-61 15.29-26.18-0.56-46.3-9.28-55.3-12.48 5.52 13.8 29.24 24.19 57.68 24.19 30.34 0 55.91-11.84 58.62-27z"/>
                <path class="cls-23" d="M144.41,158c-19,15.49-43.39,15.67-61,15.29-26.18-.56-46.3-9.28-55.3-12.48"/>
                <ellipse class="cls-24" cx="85.05" cy="140.62" rx="28.31" ry="8.11"/>
                <path class="cls-25" d="m43.58 136.71c-2.87 1.46-10.49 6.74-7.63 10.93 4.15 6.1 16.91 11.83 36.12 11.7s-12.12-1.65-22.39-10c-5.39-4.41-1.9-12.08 4.07-14.12 5.31-1.85-4.89-1.22-10.17 1.49z"/>
                <path class="cls-26" d="m128 134.36c2.75 1.66 10 7.47 6.83 11.45-4.57 5.79-17.7 10.6-36.85 9.12s12.2-0.79 23-8.44c5.69-4 2.75-11.92-3.07-14.37-5.09-2.18 5.09-0.81 10.09 2.24z"/>
                <path class="cls-27" d="m101.4 180.35s-3.07-17.13 0-14.29 0 14.29 0 14.29z"/>
                <path class="cls-28" d="m101.4 166.06c1.71 1.57 1.52 5.8 1 9.25a8.78 8.78 0 0 0 1.3-5.85c-0.35-3.63-2.21-3.77-2.84-3.71a1.09 1.09 0 0 1 0.54 0.31z"/>
                <path class="cls-29" d="m89.72 181s-2.87-16 0-13.35 0 13.35 0 13.35z"/>
                <path class="cls-30" d="m89.72 167.62c1.59 1.47 1.41 5.42 0.94 8.64a8.14 8.14 0 0 0 1.22-5.46c-0.33-3.39-2.06-3.52-2.65-3.47a1.13 1.13 0 0 1 0.49 0.29z"/>
                <path class="cls-31" d="m122.93 175.94s-3.07-17.13 0-14.29 0 14.29 0 14.29z"/>
                <path class="cls-32" d="m122.93 161.65c1.7 1.57 1.52 5.79 1 9.24a8.74 8.74 0 0 0 1.31-5.84c-0.36-3.63-2.21-3.77-2.84-3.71a1 1 0 0 1 0.53 0.31z"/>
                <path class="cls-33" d="m139.91 166.6s-2.22-12.36 0-10.31 0 10.31 0 10.31z"/>
                <path class="cls-34" d="M139.91,156.29c1.23,1.13,1.09,4.17.73,6.66a6.31,6.31,0,0,0,.94-4.21c-.26-2.64-1.61-2.72-2.06-2.68A.82.82,0,0,1,139.91,156.29Z"/>
                <path class="cls-35" d="m132.47 170.65s-2.07-11.56 0-9.64 0 9.64 0 9.64z"/>
                <path class="cls-36" d="m134.5 163.51c-0.32-3.24-2.26-2.71-2.26-2.71a0.93 0.93 0 0 1 0.22 0.16c1.29 1.19 1 4.66 0.54 7.09 0.55 0.3 1.76-1.88 1.5-4.54z"/>
                <path class="cls-37" d="m111.51 175.94s-2.07-11.56 0-9.64 0 9.64 0 9.64z"/>
                <path class="cls-38" d="m113.54 168.8c-0.31-3.24-2.25-2.72-2.25-2.72v0.06a0.93 0.93 0 0 1 0.22 0.16c1.3 1.19 1 4.66 0.55 7.09 0.53 0.25 1.74-1.93 1.48-4.59z"/>
                <path class="cls-39" d="m76.21 166.91c-1.6 1.68-1.14 5.89-0.41 9.3a8.73 8.73 0 0 1-1.68-5.75c0.12-3.64 2-3.91 2.59-3.89a1.19 1.19 0 0 0-0.5 0.34z"/>
                <path class="cls-40" d="m55.43 178.16s2-17.29-0.92-14.26 0.92 14.26 0.92 14.26z"/>
                <path class="cls-41" d="m54.51 163.9c-1.6 1.68-1.14 5.88-0.42 9.29a8.77 8.77 0 0 1-1.68-5.75c0.12-3.64 2-3.9 2.6-3.88a1 1 0 0 0-0.5 0.34z"/>
                <path class="cls-42" d="m37.88 169.94s1.42-12.48-0.66-10.3 0.66 10.3 0.66 10.3z"/>
                <path class="cls-43" d="M37.22,159.64c-1.15,1.22-.82,4.24-.3,6.7a6.27,6.27,0,0,1-1.21-4.14c.09-2.65,1.43-2.82,1.88-2.8A.77.77,0,0,0,37.22,159.64Z"/>
                <path class="cls-44" d="m45.57 173.5s1.32-11.67-0.62-9.62 0.62 9.62 0.62 9.62z"/>
                <path class="cls-45" d="M43.08,166.51c.11-3.26,2.08-2.86,2.08-2.86v.06a.63.63,0,0,0-.21.17c-1.22,1.27-.67,4.71-.09,7.11C44.35,171.28,43,169.18,43.08,166.51Z"/>
                <path class="cls-46" d="m67.06 178.71s1.67-14.74-0.79-12.15 0.79 12.15 0.79 12.15z"/>
                <path class="cls-47" d="m63.92 169.88c0.13-4.11 2.62-3.61 2.62-3.61v0.07a1.24 1.24 0 0 0-0.27 0.22c-1.53 1.61-0.84 6-0.11 9-0.65 0.35-2.36-2.3-2.24-5.68z"/>
                <path class="cls-48" d="M97.88,125c-.76.32-1.17.52-1.17.52s38.88,7.12,21,20C103.28,155.87,74,154.55,74,154.55s30.64,10.15,60.58-.1a39.94,39.94,0,0,0,9.42-4.59C140.21,134.69,122,126.85,97.88,125Z"/>
                <path class="cls-49" d="m85.05 132.52c-15.63 0-28.31 3.63-28.31 8.1a3.06 3.06 0 0 0 0.89 2c5.68-2.71 26.44-10.78 54.55 0.28a3.26 3.26 0 0 0 1.18-2.31c0-4.44-12.68-8.07-28.31-8.07z"/>
            </g>
        </g>
    </g>
</svg>
