<?xml version="1.0" encoding="UTF-8"?>
<svg viewBox="0 0 174.28 218.85" xmlns="http://www.w3.org/2000/svg" xmlns:xlink="http://www.w3.org/1999/xlink">
    <defs>
        <style>.cls-1,.cls-23,.cls-4{fill:none;}.cls-2{isolation:isolate;}.cls-3{fill:url(#ad);}.cls-4{stroke-width:0.75px;stroke:url(#ae);}.cls-5{fill:#ffd439;}.cls-10,.cls-5{fill-opacity:0.5;}.cls-6{fill:url(#l);}.cls-7{fill:url(#k);}.cls-8{fill:url(#j);}.cls-9{stroke:#fff;stroke-width:1.49px;fill:url(#af);}.cls-10{fill:url(#i);}.cls-11{clip-path:url(#h);}.cls-12{opacity:0.48;}.cls-13,.cls-14,.cls-16,.cls-43,.cls-47{fill:#fff;}.cls-13{opacity:0.1;}.cls-14{opacity:0.42;}.cls-15{opacity:0.4;}.cls-16{opacity:0.61;}.cls-17{fill:url(#b);}.cls-18{fill:url(#d);}.cls-19{fill:url(#m);}.cls-20,.cls-23{stroke:#0e398f;stroke-miterlimit:10;stroke-width:0.54px;}.cls-20{fill:url(#c);}.cls-21{fill:url(#f);}.cls-22{fill:url(#n);}.cls-24{fill:url(#e);}.cls-25{fill:url(#o);}.cls-26{fill:#ffc65c;}.cls-27{fill:url(#p);}.cls-28{fill:url(#q);}.cls-29{fill:url(#r);}.cls-30{fill:url(#a);}.cls-31{fill:url(#s);}.cls-32{fill:url(#x);}.cls-33{fill:url(#t);}.cls-34{fill:url(#u);}.cls-35{fill:url(#v);}.cls-36{fill:url(#g);}.cls-37{fill:#0c69a3;}.cls-38{fill:url(#w);}.cls-39{fill:url(#y);}.cls-40{fill:url(#z);}.cls-41{fill:#ff5c5c;}.cls-42{fill:url(#aa);}.cls-43{opacity:0.58;}.cls-44{opacity:0.46;fill:url(#ab);}.cls-44,.cls-45{mix-blend-mode:multiply;}.cls-45{fill:#ff7b29;opacity:0.59;}.cls-46{fill:#0e398f;}.cls-48{opacity:0.26;mix-blend-mode:color-dodge;fill:url(#ac);}</style>
        <linearGradient id="ad" x1="85.87" x2="85.87" y1="3093.6" y2="2888.2" gradientTransform="matrix(1 0 0 -1 0 3107.1)" gradientUnits="userSpaceOnUse">
            <stop stop-color="#ffd439" offset="0"/>
            <stop stop-color="#ff7a00" offset="1"/>
        </linearGradient>
        <linearGradient id="ae" x1="85.87" x2="85.87" y1="3093.6" y2="2888.2" gradientTransform="matrix(1 0 0 -1 0 3107.1)" gradientUnits="userSpaceOnUse">
            <stop stop-color="#fff" offset="0"/>
            <stop stop-color="#fff" stop-opacity="0" offset=".7"/>
        </linearGradient>
        <linearGradient id="l" x1="86.25" x2="86.25" y1="2898.7" y2="3083.9" gradientTransform="matrix(1 0 0 -1 0 3107.1)" gradientUnits="userSpaceOnUse">
            <stop stop-color="#8bb6e8" offset="0"/>
            <stop stop-color="#91b9e9" offset=".02"/>
            <stop stop-color="#b2cff0" offset=".14"/>
            <stop stop-color="#cee0f5" offset=".27"/>
            <stop stop-color="#e4eefa" offset=".41"/>
            <stop stop-color="#f3f8fd" offset=".56"/>
            <stop stop-color="#fcfdfe" offset=".74"/>
            <stop stop-color="#fff" offset="1"/>
        </linearGradient>
        <linearGradient id="k" x1="86.25" x2="86.25" y1="2898.7" y2="3083.9" gradientTransform="matrix(1 0 0 -1 0 3107.1)" gradientUnits="userSpaceOnUse">
            <stop stop-color="#fff" offset="0"/>
            <stop stop-color="#03dbe0" stop-opacity="0" offset="0"/>
            <stop stop-color="#0e84bf" offset="1"/>
        </linearGradient>
        <linearGradient id="j" x1="86.25" x2="86.25" y1="2898.7" y2="3083.9" gradientTransform="matrix(1 0 0 -1 0 3107.1)" gradientUnits="userSpaceOnUse">
            <stop stop-color="#45657b" stop-opacity="0" offset="0"/>
            <stop stop-color="#4e97ed" offset="1"/>
        </linearGradient>
        <linearGradient id="af" x1="85.87" x2="85.87" y1="3106.3" y2="3065.7" gradientTransform="matrix(1 0 0 -1 0 3107.1)" gradientUnits="userSpaceOnUse">
            <stop stop-color="#fff" offset="0"/>
            <stop stop-color="#03dbe0" offset="0"/>
            <stop stop-color="#0e84bf" offset="1"/>
        </linearGradient>
        <radialGradient id="i" cx="-325.54" cy="1976.6" r=".52" gradientTransform="matrix(0 13.04 98.4 0 -194412 4441.9)" gradientUnits="userSpaceOnUse">
            <stop stop-color="#3255a8" offset=".38"/>
            <stop stop-color="#a0a0ff" stop-opacity="0" offset="1"/>
        </radialGradient>
        <clipPath id="h">
            <path class="cls-1" d="M19.45,21.07h133.6A12.12,12.12,0,0,1,165,33.36V199.08a12.12,12.12,0,0,1-11.95,12.28H19.45A12.12,12.12,0,0,1,7.5,199.08V33.36A12.12,12.12,0,0,1,19.45,21.07Z"/>
        </clipPath>
        <linearGradient id="b" x1="113.74" x2="100.51" y1="65.58" y2="79.05" gradientUnits="userSpaceOnUse">
            <stop stop-color="#0687ba" offset=".06"/>
            <stop stop-color="#0b79b7" offset=".22"/>
            <stop stop-color="#1754b0" offset=".52"/>
            <stop stop-color="#2b19a5" offset=".92"/>
            <stop stop-color="#2f0ca3" offset="1"/>
        </linearGradient>
        <linearGradient id="d" x1="150.77" x2="139.92" y1="124.71" y2="158.67" gradientUnits="userSpaceOnUse">
            <stop stop-color="#ff5c5c" offset="0"/>
            <stop stop-color="#bf0b0b" offset="1"/>
        </linearGradient>
        <linearGradient id="m" x1="134.16" x2="87.78" y1="80.61" y2="127.84" xlink:href="#b"/>
        <linearGradient id="c" x1="100.45" x2="114.78" y1="101.77" y2="94.46" gradientUnits="userSpaceOnUse">
            <stop stop-color="#08b9ff" offset="0"/>
            <stop stop-color="#1bbfff" offset=".06"/>
            <stop stop-color="#50d2ff" offset=".24"/>
            <stop stop-color="#7de1ff" offset=".41"/>
            <stop stop-color="#9fedff" offset=".58"/>
            <stop stop-color="#b8f6ff" offset=".74"/>
            <stop stop-color="#c7fbff" offset=".88"/>
            <stop stop-color="#ccfdff" offset="1"/>
        </linearGradient>
        <linearGradient id="f" x1="84.9" x2="133.25" y1="95.69" y2="80.79" gradientUnits="userSpaceOnUse">
            <stop stop-color="#ff7b29" offset=".04"/>
            <stop stop-color="#ffc65c" offset=".83"/>
        </linearGradient>
        <linearGradient id="n" x1="115.76" x2="129.54" y1="106.23" y2="100.89" xlink:href="#c"/>
        <linearGradient id="e" x1="54.66" x2="52.56" y1="120.13" y2="102.83" gradientUnits="userSpaceOnUse">
            <stop stop-color="#08b9ff" offset="0"/>
            <stop stop-color="#3fccff" offset=".22"/>
            <stop stop-color="#7be1ff" offset=".49"/>
            <stop stop-color="#a7f0ff" offset=".72"/>
            <stop stop-color="#c2faff" offset=".9"/>
            <stop stop-color="#ccfdff" offset="1"/>
        </linearGradient>
        <linearGradient id="o" x1="86.08" x2="85.52" y1="119.21" y2="170.93" gradientUnits="userSpaceOnUse">
            <stop stop-color="#0687ba" offset=".14"/>
            <stop stop-color="#2f0ca3" offset="1"/>
        </linearGradient>
        <linearGradient id="p" x1="92.1" x2="72.58" y1="97.02" y2="158.12" xlink:href="#d"/>
        <linearGradient id="q" x1="62.15" x2="64.12" y1="119.04" y2="160.36" gradientUnits="userSpaceOnUse">
            <stop stop-color="#ffc65c" offset=".26"/>
            <stop stop-color="#ff7b29" offset=".86"/>
        </linearGradient>
        <linearGradient id="r" x1="65.42" x2="56.71" y1="148.84" y2="176.1" gradientUnits="userSpaceOnUse">
            <stop stop-color="#bf0b0b" offset="0"/>
            <stop stop-color="#ff5c5c" offset="1"/>
        </linearGradient>
        <linearGradient id="a" x1="63.34" x2="60.2" y1="104.84" y2="133.46" gradientUnits="userSpaceOnUse">
            <stop stop-color="#0c69a3" offset=".22"/>
            <stop stop-color="#08559a" offset=".42"/>
            <stop stop-color="#02378c" offset=".79"/>
            <stop stop-color="#002b87" offset="1"/>
        </linearGradient>
        <linearGradient id="s" x1="88.54" x2="77.3" y1="157.04" y2="208.76" gradientUnits="userSpaceOnUse">
            <stop stop-color="#00c3d6" offset="0"/>
            <stop stop-color="#048cc4" offset=".33"/>
            <stop stop-color="#066fba" offset=".49"/>
        </linearGradient>
        <linearGradient id="x" x1="102.33" x2="97.09" y1="129.83" y2="177.58" xlink:href="#a"/>
        <linearGradient id="t" x1="86.47" x2="91.81" y1="103.59" y2="146.04" gradientUnits="userSpaceOnUse">
            <stop stop-color="#00c3d6" offset=".25"/>
            <stop stop-color="#066fba" offset="1"/>
        </linearGradient>
        <linearGradient id="u" x1="56.77" x2="57.41" y1="102.06" y2="177.32" gradientUnits="userSpaceOnUse">
            <stop stop-color="#00d3e8" offset=".25"/>
            <stop stop-color="#064eba" offset=".86"/>
        </linearGradient>
        <linearGradient id="v" x1="51.18" x2="46.12" y1="160.18" y2="118.58" xlink:href="#e"/>
        <linearGradient id="g" x1="108.94" x2="81" y1="102.51" y2="130" gradientUnits="userSpaceOnUse">
            <stop stop-color="#ccfdff" offset=".07"/>
            <stop stop-color="#c5fbff" offset=".17"/>
            <stop stop-color="#b1f4ff" offset=".31"/>
            <stop stop-color="#91e9ff" offset=".48"/>
            <stop stop-color="#65d9ff" offset=".67"/>
            <stop stop-color="#2dc6ff" offset=".88"/>
            <stop stop-color="#08b9ff" offset="1"/>
        </linearGradient>
        <linearGradient id="w" x1="123.22" x2="120.63" y1="163.17" y2="186.78" xlink:href="#a"/>
        <linearGradient id="y" x1="114" x2="139.58" y1="158.15" y2="191.88" gradientUnits="userSpaceOnUse">
            <stop stop-color="#00d3e8" offset=".04"/>
            <stop stop-color="#01c7e4" offset=".18"/>
            <stop stop-color="#02a8d9" offset=".43"/>
            <stop stop-color="#0475c7" offset=".76"/>
            <stop stop-color="#064eba" offset=".98"/>
        </linearGradient>
        <linearGradient id="z" x1="99.73" x2="108.34" y1="67.95" y2="65.29" xlink:href="#f"/>
        <linearGradient id="aa" x1="104.08" x2="96" y1="64.22" y2="72.17" xlink:href="#g"/>
        <linearGradient id="ab" x1="87.49" x2="93.81" y1="187.63" y2="69.58" gradientUnits="userSpaceOnUse">
            <stop stop-color="#3908ff" offset=".03"/>
            <stop stop-color="#6331fd" stop-opacity=".81" offset=".19"/>
            <stop stop-color="#cb98f9" stop-opacity=".34" offset=".56"/>
            <stop stop-color="#ffccf7" stop-opacity=".1" offset=".74"/>
        </linearGradient>
        <radialGradient id="ac" cx="93.64" cy="532.53" r="60.66" gradientTransform="translate(0 -469) scale(1 1.08)" gradientUnits="userSpaceOnUse">
            <stop stop-color="#fff" offset="0"/>
            <stop stop-color="#fff" stop-opacity=".69" offset=".26"/>
            <stop stop-color="#fff" stop-opacity=".4" offset=".52"/>
            <stop stop-color="#fff" stop-opacity=".18" offset=".75"/>
            <stop stop-color="#fff" stop-opacity=".05" offset=".91"/>
            <stop stop-color="#fff" stop-opacity="0" offset="1"/>
        </radialGradient>
    </defs>
    <g class="cls-2">
        <g>
            <g>
                <rect class="cls-3" y="13.49" width="171.75" height="205.36" rx="11.95"/>
                <rect class="cls-4" x=".37" y="13.87" width="171" height="204.61" rx="11.58"/>
                <path class="cls-5" d="M0,25.44a12,12,0,0,1,12-12H159.8a12,12,0,0,1,11.95,12v84.78a12,12,0,0,1-11.95,12H12A12,12,0,0,1,0,110.22Z"/>
                <rect class="cls-6" x="7.5" y="23.24" width="157.5" height="185.12" rx="11.95"/>
                <rect class="cls-7" x="7.5" y="23.24" width="157.5" height="185.12" rx="11.95"/>
                <rect class="cls-8" x="7.5" y="23.24" width="157.5" height="185.12" rx="11.95"/>
                <path class="cls-9" d="M74.93.75,97.38,1l11.37,20.32-11.37,20h-23L63,20.78Z"/>
                <ellipse class="cls-10" cx="84.16" cy="195.34" rx="51.52" ry="6.83"/>
                <g class="cls-11">
                    <g class="cls-12">
                        <path class="cls-13" d="M166.42,17.78c-41.64,4.06-45.7,42.77-45.7,42.77-19.19-3.61-7.1-35.46-7.1-35.46C79.31,22.93,67.68,59.78,67.68,59.78c-27.78-8-18.87-42.92-18.87-42.92C22,17.78,8.65,34.79.44,50.1l.8,57.46C12.66,93.39,31,78.77,55.76,84c0,0-16.71,33.81,11.07,41.81,0,0,11.63-36.84,45.94-34.68,0,0-12.09,31.84,7.1,35.46,0,0,5.61-35.94,47.24-40,0,0-10.26,30,7.17,39.17V58.14C155.86,50.87,166.42,17.78,166.42,17.78Z"/>
                        <path class="cls-14" d="m6.74 208.41h148.26a18.56 18.56 0 0 0 13-5.41c-8.45-16.81-1.94-42.66-1.94-42.66-41.64 4.06-51.66 45-51.66 45-19.19-3.61-7.1-35.45-7.1-35.45-34.3-2.16-45.91 34.69-45.91 34.69-27.78-8-11.07-41.82-11.07-41.82-21.18-4.5-37.62 5.51-49.08 17.35v22.46a5.67 5.67 0 0 0 5.5 5.84z"/>
                        <g class="cls-15">
                            <path class="cls-16" d="M162.75,206.69l-.45.21Z"/>
                            <path class="cls-16" d="M160.14,207.68l-.44.12Z"/>
                            <path class="cls-16" d="M161.9,207.06l-.45.18Z"/>
                            <path class="cls-16" d="m161 207.39c-0.15 0.05-0.29 0.11-0.45 0.15 0.19-0.04 0.33-0.1 0.45-0.15z"/>
                            <path class="cls-16" d="m156.31 208.36h-0.32z"/>
                            <path class="cls-16" d="M159.23,207.92l-.44.1Z"/>
                            <path class="cls-16" d="M158.29,208.12l-.42.07Z"/>
                            <path class="cls-16" d="M157.33,208.26l-.39.05Z"/>
                            <path class="cls-16" d="M167.36,203.66c-.16.15-.33.28-.49.42C167,203.94,167.2,203.81,167.36,203.66Z"/>
                            <path class="cls-16" d="M166.65,204.26l-.47.36Z"/>
                            <path class="cls-16" d="M163.58,206.28l-.45.24Z"/>
                            <path class="cls-16" d="m167.11 86.63c-41.63 4.06-47.24 40-47.24 40-19.19-3.62-7.1-35.46-7.1-35.46-34.31-2.17-45.94 34.68-45.94 34.68-27.78-8-11.07-41.85-11.07-41.85-24.76-5.23-43.1 9.39-54.52 23.56v72.55c11.46-11.84 27.9-21.85 49.08-17.35 0 0-16.71 33.82 11.07 41.82 0 0 11.63-36.85 45.94-34.68 0 0-12.09 31.84 7.1 35.45 0 0 10-40.92 51.66-45 0 0-6.51 25.85 1.94 42.66a21 21 0 0 0 6.25-15.01v-62.2c-17.34-13.46-7.17-39.17-7.17-39.17z"/>
                            <path class="cls-16" d="M168,203l-.52.48Z"/>
                            <path class="cls-16" d="M164.39,205.83l-.46.26Z"/>
                            <path class="cls-16" d="M165.92,204.82l-.46.33Z"/>
                            <path class="cls-16" d="M165.17,205.34l-.47.3Z"/>
                        </g>
                    </g>
                </g>
                <path class="cls-17" d="m105.61 70.21a12.9 12.9 0 0 1-0.18 8.46s3.89 0.5 4.45 0 1.25-8.68 0-10.7-2.07-2.87-3.9-3.24-0.37 5.48-0.37 5.48z"/>
                <path class="cls-18" d="m134.44 143.36c4.32-2.72 2.95-15.16 11.28-17l-3.91 19.12s5.07 14.12 8.13 16.23a34.13 34.13 0 0 1-15.29-11.49c-2.3-2.99-1.65-5.94-0.21-6.86z"/>
                <path class="cls-19" d="M91.58,113.29s-1.39-20.41,0-22.21c2.6-3.37,27.12-5.36,35.7,2.52L123.9,124Z"/>
                <circle class="cls-20" cx="105.12" cy="99.39" r="7.52"/>
                <path class="cls-21" d="M130,84.46c-11.08-10.82-35-6.8-39.78-4.2-3.7,2-2.62,10.4-2.06,13.34A4.45,4.45,0,0,0,91,96.42c0-2.72.2-4.82.61-5.34,2.6-3.37,27.12-5.36,35.7,2.52L127,96.4l.45.17C131.35,94.18,130,84.46,130,84.46Z"/>
                <path class="cls-22" d="m127.12 95a7.51 7.51 0 0 0-1.64 14.8z"/>
                <path class="cls-23" d="m127.12 95a7.51 7.51 0 0 0-1.64 14.8"/>
                <ellipse class="cls-24" cx="53.62" cy="111.58" rx="10.73" ry="9.17"/>
                <path class="cls-25" d="m139.5 145.61c0 14.76-26.82 35.14-53.65 35.14s-51.19-9.42-53.58-39.06c-1.68-20.88 16.4-40.15 57.12-37.94 29.61 1.61 50.11 28.64 50.11 41.86z"/>
                <path class="cls-26" d="m48.45 148.21a54.67 54.67 0 0 1-14.72-3.21c3.89 27 27.41 35.75 53.21 35.75 11.31 0 22.62-3.63 31.92-8.92a60 60 0 0 0 7.23-27.34c-25.29 5.73-51.73 4.86-77.64 3.72z"/>
                <path class="cls-27" d="m117.65 113.79a54.67 54.67 0 0 0-28.26-10c-40.72-2.21-58.8 17.06-57.12 37.94 0.09 1.13 0.22 2.23 0.37 3.31a54.67 54.67 0 0 0 14.72 3.21c25.91 1.14 52.35 2 77.64-3.72v-1.57a60.14 60.14 0 0 0-7.35-29.17z"/>
                <path class="cls-28" d="m90.24 159.38a40.61 40.61 0 0 0-1.75-38.18c-17.73 5.41-36.37 7.06-54.77 8.13a31.16 31.16 0 0 0-1.45 12.36 45.1 45.1 0 0 0 3 13.32c17.97 4.41 36.43 5.09 54.97 4.37z"/>
                <path class="cls-29" d="m35.27 155c5.47 13.68 17.47 20.92 32 24a36.25 36.25 0 0 0 23-19.59c-18.57 0.69-37.03 0.01-55-4.41z"/>
                <path class="cls-30" d="m67.38 104.89c-18.8 3.38-29.82 12.91-33.66 24.44 18.4-1.07 37-2.72 54.77-8.13a35.94 35.94 0 0 0-21.11-16.31z"/>
                <path class="cls-31" d="M67.27,179a91.09,91.09,0,0,0,18.58,1.79,57.74,57.74,0,0,0,11.94-1.29c1.11-1.11,2.15-2.27,3.15-3.49-4.27-4.19-8.67-8.12-14-11A35.58,35.58,0,0,1,67.27,179Z"/>
                <path class="cls-32" d="m110.5 130.08c-5.53 1.84-11.07 3.65-16.61 5.56a43.85 43.85 0 0 1 0.29 5 42.42 42.42 0 0 1-7.18 23.94c5.32 3 9.72 7 14 11.39a52.92 52.92 0 0 0 11.16-32.78 54.29 54.29 0 0 0-1.66-13.11z"/>
                <path class="cls-33" d="M91,103.92c-.72-.07-1.45-.13-2.18-.17a96.18,96.18,0,0,0-22,1.14c14,3.82,24.66,16.52,26.51,32.17,5.54-1.84,11.08-3.59,16.61-5.36A49.16,49.16,0,0,0,91,103.92Z"/>
                <path class="cls-34" d="M82,140.83c0-17.54-12-31.76-26.84-31.76-.65,0-1.29,0-1.93.09-15.28,6.91-22,19.4-21,32.53,1.15,14.34,7.45,23.94,16.68,30a23,23,0,0,0,6.23.86C70,172.59,82,158.37,82,140.83Z"/>
                <path class="cls-35" d="m68.28 139.57c0 12.22-7.94 22.13-19.08 22.13s-20.2-9.91-20.2-22.13 9-22.14 20.16-22.14 19.12 9.91 19.12 22.14z"/>
                <path class="cls-36" d="m110.85 116.15c0 5.29-8.86 6-13.44 4.59s-11.48-8.43-10.17-13.54c0.62-2.43 7.36-6.75 13.81-5.33s9.8 9 9.8 14.28z"/>
                <path class="cls-37" d="M111.64,117a2.43,2.43,0,0,0-.8-.69c-.18,5.14-8.89,5.79-13.43,4.43s-11.48-8.43-10.17-13.54a2.51,2.51,0,0,1,.36-.77c-.54-.17-1.11-.27-1.41,0-.64.53-2.22,2-2.06,2.59s.16,13.41,12.23,16.76,14.33-3.4,14.49-3.9S112.43,117.84,111.64,117Z"/>
                <path class="cls-38" d="m104.3 163.88 0.82-3s30.59 18.45 33.64 22.56-3.13 4-3.13 4-21.32-4.3-31.33-23.56z"/>
                <path class="cls-39" d="m105.12 160.86s13.86 1 19.91-3.58c0 0 17.81 25.87 16 28.32s-31.72-13.15-35.91-24.74z"/>
                <path class="cls-40" d="M101,62.52s4-.39,4.69.13a4.93,4.93,0,0,1,2,4c.09,2.33-1.21,4.25-1.62,4.37s-4.84.25-4.8-.11S101,62.52,101,62.52Z"/>
                <ellipse class="cls-41" cx="101.62" cy="66.86" rx="3.81" ry="4.4"/>
                <ellipse class="cls-42" cx="101.39" cy="66.86" rx="2.54" ry="2.94"/>
                <path class="cls-43" d="m47.37 161.61c6.36-8.84 15.33-16.51 20.88-20.83v-1.21a25.92 25.92 0 0 0-1.74-9.49c-10.45 4-19.87 19.78-25 29.94a18.5 18.5 0 0 0 5.86 1.59z"/>
                <path class="cls-43" d="M56.34,118.93C38,120.55,32,136,30,146.3a22.72,22.72,0,0,0,4.25,8.11c6.93-21.31,22.25-27.8,29.32-29.69A18.5,18.5,0,0,0,56.34,118.93Z"/>
                <path class="cls-44" d="M137.38,153.36a33,33,0,0,0,12.56,8.34c-3.06-2.11-8.13-16.23-8.13-16.23l3.91-19.12c-5.3,1.18-6.67,6.64-8.08,11.16a54.14,54.14,0,0,0-13.22-18.24l2.86-25.67L127,96.4l.45.17c3.94-2.39,2.63-12.11,2.63-12.11-5-4.86-12.53-6.72-19.79-7.07.41-2.49.61-7.84-.37-9.42a7.21,7.21,0,0,0-2.33-2.66,4.83,4.83,0,0,0-1.83-2.66c-.52-.39-2.91-.27-4.06-.19h0a3,3,0,0,0-.52,0H101a4.26,4.26,0,0,0-3.22,4.34c0,2.43,1.71,4.4,3.81,4.4a3.19,3.19,0,0,0,1-.15,31.93,31.93,0,0,0,3.26-.07,13.26,13.26,0,0,1,0,6.32c-7.17.22-13.4,1.7-15.58,2.9-3.7,2-2.62,10.4-2.06,13.34A4.45,4.45,0,0,0,91,96.42h0c0,2.14,0,4.67.11,7.12-.18.09-.35.19-.52.29l-1.17-.08h0c-1.91-.1-3.77-.16-5.58-.17H83c-.22,0-.44,0-.66,0h-.68a90.09,90.09,0,0,0-14.88,1.3L67,105l-1.26.24-.43.09-1.16.26c-.18,0-.35.08-.52.12l-1.05.25-.43.11a11.38,11.38,0,0,0-8.53-3.63c-5.92,0-10.72,4.11-10.72,9.17a7.89,7.89,0,0,0,.8,3.47c-.25.2-.5.41-.73.62l-.09.07c-.29.25-.57.51-.84.77l-.08.07-.53.51-.08.09c-.28.27-.55.54-.81.82l-.1.11A31.51,31.51,0,0,0,38.07,121l-.1.14-.13.17A22.79,22.79,0,0,0,29,139.57a24.24,24.24,0,0,0,1.29,7.82l.06.14c.11.31.22.62.34.92l.09.21c.11.28.23.55.35.82l.12.25c.12.25.24.5.37.75l.14.27c.13.24.26.48.4.71l.15.27c.14.23.29.46.44.68a2.13,2.13,0,0,0,.16.25l.49.71.14.19A21.8,21.8,0,0,0,35.66,156v0c.26.6.54,1.19.82,1.76l.13.25c.29.57.59,1.13.9,1.67,0,.08.09.16.14.23.31.55.64,1.08,1,1.6,0,.07.09.14.14.21.35.52.7,1,1.08,1.52a1.33,1.33,0,0,0,.14.19c.38.5.77,1,1.17,1.45,0,.06.09.11.13.16.41.48.83.94,1.27,1.39l.11.12c.45.46.9.91,1.37,1.34l.09.08q.72.67,1.47,1.29l.05,0A39.73,39.73,0,0,0,49,171.73h0c1,.68,2.12,1.32,3.23,1.92l0,0a49.51,49.51,0,0,0,5.91,2.68h0l1.21.44,0,0a62.85,62.85,0,0,0,6.47,1.86h0a87,87,0,0,0,17.53,2h0c.8,0,1.59,0,2.39,0h1.09A63.79,63.79,0,0,0,112.65,175a51.68,51.68,0,0,0,23,12.46s3.45.06,3.93-1.62c.75.12,1.26.06,1.45-.2,1.24-1.67-6.64-14.23-11.78-22A38,38,0,0,0,137.38,153.36ZM91,95.89v0Zm.6-4.81a.75.75,0,0,0-.11.2A.75.75,0,0,1,91.58,91.08Zm-.13.24c0,.08-.06.17-.09.28C91.39,91.49,91.42,91.4,91.45,91.32Zm-.11.35c0,.11,0,.22-.08.35C91.29,91.89,91.31,91.78,91.34,91.67Zm-.09.44-.06.37Zm-.07.48c0,.14,0,.29-.05.45C91.14,92.88,91.16,92.73,91.18,92.59Zm-.07.65c0,.15,0,.3,0,.46C91.08,93.54,91.09,93.39,91.11,93.24Zm-.06.74c0,.1,0,.21,0,.31C91,94.19,91.05,94.08,91.05,94Zm0,.83c0,.08,0,.16,0,.24C91,95,91,94.89,91,94.81Z"/>
                <path class="cls-45" d="M108.09,85.83c-8.33,0-15.72,1.07-20.27,5.23.12,1,.26,1.9.38,2.54A4.45,4.45,0,0,0,91,96.42c0-2.72.2-4.82.61-5.34,2.6-3.37,27.12-5.36,35.7,2.52L127,96.4l.45.17a6.11,6.11,0,0,0,2.39-4C125.48,87.55,117.38,85.83,108.09,85.83Z"/>
                <ellipse class="cls-46" transform="translate(-73.34 112.16) rotate(-64.84)" cx="51.62" cy="113.81" rx="2.36" ry="2.21"/>
                <ellipse class="cls-46" transform="translate(-70.48 123.26) rotate(-64.84)" cx="61.79" cy="117.11" rx="2.36" ry="2.21"/>
                <ellipse class="cls-46" transform="translate(-73.09 136.01) rotate(-64.84)" cx="70.52" cy="125.55" rx="2.36" ry="2.21"/>
                <ellipse class="cls-46" transform="translate(-81.01 145.27) rotate(-64.84)" cx="73.85" cy="136.4" rx="2.36" ry="2.21"/>
                <ellipse class="cls-46" transform="translate(-93.21 150.83) rotate(-64.84)" cx="72.13" cy="148.79" rx="2.36" ry="2.21"/>
                <ellipse class="cls-46" transform="translate(-105.21 152.28) rotate(-64.84)" cx="67.27" cy="158.96" rx="2.36" ry="2.21"/>
                <ellipse class="cls-46" transform="translate(-115.64 147.85) rotate(-64.84)" cx="58.57" cy="164.96" rx="2.36" ry="2.21"/>
                <ellipse class="cls-46" transform="translate(-123.71 139.22) rotate(-64.84)" cx="47.74" cy="166.99" rx="2.36" ry="2.21"/>
                <path class="cls-47" d="M91.71,20.12a5.47,5.47,0,0,1,2,4.43,6.13,6.13,0,0,1-.9,3.26,6.3,6.3,0,0,1-2.73,2.35,10.35,10.35,0,0,1-4.52.88,15.66,15.66,0,0,1-4.08-.54,10.67,10.67,0,0,1-3.4-1.56l1.79-3.47a8.69,8.69,0,0,0,2.58,1.3,9.79,9.79,0,0,0,3,.46,4.66,4.66,0,0,0,2.68-.67,2.29,2.29,0,0,0,0-3.78,7,7,0,0,0-3.54-.64h-5l1-11h12v3.64H84.31L84,18.47h1.59Q89.75,18.47,91.71,20.12Z"/>
            </g>
            <g>
                <ellipse class="cls-48" cx="93.64" cy="107.33" rx="60.66" ry="68.3"/>
            </g>
        </g>
    </g>
</svg>
