<?xml version="1.0" encoding="UTF-8"?>
<svg viewBox="0 0 300 300" xmlns="http://www.w3.org/2000/svg">
    <defs>
        <style>.cls-1{fill:none;}.cls-2{opacity:0.04;}.cls-3{fill:#fff;}.cls-4{fill:#e74e00;}</style>
    </defs>
    <rect class="cls-1" width="300" height="300"/>
    <g class="cls-2">
        <path class="cls-3" d="M-34.08,138.28C-36,127.12-45.4,119.45-55,121.14s-15.73,12.09-13.76,23.25,11.31,18.84,20.89,17.15S-32.12,149.45-34.08,138.28ZM-4.25,133c10.73-1.89,17.65-13.58,15.44-26.08S-1.52,85.77-12.25,87.66-29.9,101.24-27.7,113.74-15,134.92-4.25,133Zm2.91,15c-26,4.59-42.21,37.78-38.5,58.81,5.4,30.62,24,12.71,50,8.12s49.64,5.88,44.24-24.74C50.74,169.21,24.7,143.46-1.34,148.06Zm40.67-43.55c-9.57,1.69-15.72,12.1-13.75,23.25s11.31,18.84,20.87,17.16,15.73-12.1,13.76-23.26S48.9,102.82,39.33,104.51Z"/>
        <path class="cls-3" d="m265.92 138.28c-2-11.16-11.32-18.83-20.88-17.14s-15.73 12.09-13.76 23.25 11.31 18.84 20.89 17.15 15.71-12.09 13.75-23.26zm29.83-5.28c10.73-1.89 17.65-13.58 15.44-26.08s-12.71-21.17-23.44-19.28-17.65 13.58-15.45 26.08 12.7 21.2 23.45 19.28zm2.91 15c-26 4.59-42.21 37.78-38.5 58.81 5.4 30.62 24 12.71 50 8.12s49.64 5.88 44.24-24.74c-3.66-20.98-29.7-46.73-55.74-42.13zm40.67-43.55c-9.57 1.69-15.72 12.1-13.75 23.25s11.31 18.84 20.87 17.16 15.73-12.1 13.76-23.26-11.31-18.78-20.88-17.09z"/>
    </g>
    <g class="cls-2">
        <path class="cls-3" d="m120.17 282.39c-2-11.15-11.31-18.83-20.87-17.14s-15.73 12.09-13.77 23.25 11.32 18.84 20.89 17.16 15.72-12.1 13.75-23.27zm29.83-5.26c10.73-1.89 17.65-13.58 15.45-26.07s-12.71-21.18-23.45-19.29-17.65 13.59-15.44 26.08 12.71 21.15 23.44 19.28zm2.91 15c-26 4.59-42.21 37.78-38.5 58.82 5.4 30.61 24 12.7 50 8.11s49.69 5.94 44.29-24.7c-3.7-21.03-29.7-46.78-55.79-42.19zm40.67-43.55c-9.56 1.69-15.72 12.1-13.75 23.26s11.31 18.84 20.88 17.15 15.72-12.09 13.76-23.26-11.32-18.79-20.89-17.11z"/>
        <path class="cls-3" d="M120.17-17.61c-2-11.15-11.31-18.83-20.87-17.14S83.57-22.66,85.53-11.5,96.85,7.34,106.42,5.66,122.14-6.44,120.17-17.61ZM150-22.87c10.73-1.89,17.65-13.58,15.45-26.07S152.74-70.12,142-68.23s-17.65,13.59-15.44,26.08S139.27-21,150-22.87Zm2.91,15C126.88-3.24,110.7,30,114.41,51c5.4,30.61,24,12.7,50,8.11S214.1,65,208.7,34.36C205,13.33,179-12.42,152.91-7.83Zm40.67-43.55c-9.56,1.69-15.72,12.1-13.75,23.26S191.14-9.28,200.71-11s15.72-12.09,13.76-23.26S203.15-53.06,193.58-51.38Z"/>
    </g>
    <path class="cls-4" d="M146.13-135.19c-100.35.74-199.81,20.75-294.32,53.94C-192.08-65.84-236.06-48.38-277-26.12c-36.68,20-71.62,46-92.67,82.86C-413.4,133.32-387.4,229.61-347.72,302c38.36,70,95.07,129.16,161.58,173s142.81,72.41,221.79,82c83.69,10.19,169.42-1.75,248.25-31.1A584.74,584.74,0,0,0,495.56,389c59.6-60.46,121-143.57,96.42-233.21-11.82-43.11-39.09-80.47-68.54-113.3a656.78,656.78,0,0,0-96.08-87.9c-68.95-51.42-149.64-89.22-235.5-100.11a400,400,0,0,0-62.75-3c-1.92.06-1.93,3.06,0,3,85.73-2.67,169.58,23.7,243,66.92A615.86,615.86,0,0,1,475.37-1.79c32.4,29.67,63.52,62.47,87,99.78,24,38.12,38.1,82.05,30,127.24-8,44.94-33.5,84.93-61.72,119.93-52.46,65.09-119.57,118.11-194.55,155s-158.29,57.61-242,57.43c-79.23-.18-157.77-19.92-228.29-55.87-70.14-35.75-132.51-87.37-179-151-23.61-32.34-43.56-67.88-57.27-105.56-15.08-41.41-23.27-86.92-16.07-130.83,7-42.8,29.85-79.11,63.24-106.37,33.82-27.61,74.5-45.86,114.48-62.61,90.49-37.91,186.24-64.56,284.08-73.87q35.34-3.36,70.88-3.62a1.5,1.5,0,0,0,0-3Z"/>
</svg>
