<?xml version="1.0" encoding="UTF-8"?>
<svg viewBox="0 0 300 300" xmlns="http://www.w3.org/2000/svg">
<defs>
<style>.cls-1{fill:none;}.cls-2{opacity:0.04;}.cls-3{fill:#fff;}.cls-4{fill:#cd0c0c;}</style>
</defs>
<rect class="cls-1" width="300" height="300"/>
<g class="cls-2">
<path class="cls-3" d="M101.9,295A161.21,161.21,0,0,0,106.31,340a4.31,4.31,0,0,0,2,2.7c15.55,9.83,30.54,12.21,35.27,12.24l15.84-1.37c21.59-4.11,36.1-17.21,38.34-24.11a7.36,7.36,0,0,0-1.6-7.26,21.67,21.67,0,0,1-4.08-6.39c-.68-2.08-1.41-4-2.17-5.87a68.87,68.87,0,0,0-3.55-7.59c2.55-7.94,6.67-21.41,9.35-33.44l0-.15c.09-.4.17-.8.26-1.19,0-.12,0-.23.07-.35.08-.34.15-.69.22-1,0-.16.07-.31.1-.47l.18-.91c0-.19.07-.38.11-.56s.11-.55.16-.82.08-.42.11-.63.1-.5.14-.75.08-.44.11-.66.08-.46.12-.69.08-.46.11-.68.07-.44.1-.65.07-.46.11-.69l.09-.62.09-.68c0-.2.05-.39.07-.58s.06-.45.08-.68l.06-.55c0-.22,0-.44.07-.66s0-.36,0-.53,0-.42.05-.63,0-.35,0-.52l0-.59c0-.17,0-.34,0-.5s0-.38,0-.57,0-.32,0-.47,0-.36,0-.53v-.46c0-.17,0-.33,0-.49l0-.43c0-.16,0-.31,0-.46s0-.28,0-.41,0-.28,0-.42l-.06-.38c0-.13-.05-.25-.08-.38s-.05-.23-.08-.35l-.09-.34a2.81,2.81,0,0,0-.1-.31,2.85,2.85,0,0,0-.12-.31c0-.09-.07-.19-.11-.28s-.09-.18-.14-.27-.09-.16-.14-.24a1.77,1.77,0,0,0-.16-.22l-.15-.21-.19-.18-.17-.16c-.07-.06-.15-.1-.22-.15l-.19-.11-.26-.1a.73.73,0,0,0-.19-.07l-.33-.06-.17,0a2.64,2.64,0,0,0-.56,0l-.56.09-.18,0-.42.1-.22.06-.41.13-.24.08-.42.15-.24.1-.47.2-.22.09-.6.29-.1,0-.75.38-.14.08-.62.35-.25.14-.53.32-.29.18-.51.31-.31.21-.51.33-.32.21-.54.37-.31.22-.69.49-.43.31-.56.41-.45.34-.42.32-.5.38-.37.29-.54.43-.32.25-.6.48-.23.19c-10.05,8.19-21.8,20.44-28.59,27.79a45.77,45.77,0,0,0-14.11,1.94s-2.88-22.85-6-32c0-.11-.11-.34-.21-.65l-.13-.43c0-.11-.08-.22-.12-.35L131,248l-.39-1.18c0-.11-.07-.21-.11-.31s-.1-.32-.16-.48-.11-.33-.17-.5c-.15-.42-.3-.85-.46-1.28s-.39-1.07-.59-1.57l-.09-.2-.09-.22-.06-.16c0-.08-.07-.17-.11-.25l-.09-.21a1.42,1.42,0,0,0-.08-.18c0-.06,0-.13-.08-.19a1.42,1.42,0,0,1-.08-.18.91.91,0,0,1-.07-.14l-.1-.2-.09-.17-.07-.15a.75.75,0,0,1-.07-.12l-.09-.17,0-.07a1.74,1.74,0,0,0-.11-.18l-.05-.08-.1-.14-.06-.08-.09-.1-.06-.07a.46.46,0,0,1-.07-.07l-.07,0a.18.18,0,0,0-.07-.05h0a1.83,1.83,0,0,0-.61-.25c-4-1.06-9.46,8.18-11,10.51a75,75,0,0,0-7.26,13.54l0,.07a83.64,83.64,0,0,0-3.73,12c0,.06,0,.12,0,.17A110.46,110.46,0,0,0,101.9,295Z"/>
<path class="cls-3" d="M101.9-5a161.21,161.21,0,0,0,4.41,45,4.31,4.31,0,0,0,2,2.7c15.55,9.83,30.54,12.21,35.27,12.24l15.84-1.37c21.59-4.11,36.1-17.21,38.34-24.11a7.36,7.36,0,0,0-1.6-7.26A21.67,21.67,0,0,1,192,15.76c-.68-2.08-1.41-4-2.17-5.87a68.87,68.87,0,0,0-3.55-7.59c2.55-7.94,6.67-21.41,9.35-33.44l0-.15c.09-.4.17-.8.26-1.19,0-.12,0-.23.07-.35.08-.34.15-.69.22-1,0-.16.07-.31.1-.47l.18-.91c0-.19.07-.38.11-.56s.11-.55.16-.82.08-.42.11-.63.1-.5.14-.75.08-.44.11-.66.08-.46.12-.69.08-.46.11-.68.07-.44.1-.65.07-.46.11-.69l.09-.62.09-.68c0-.2.05-.39.07-.58s.06-.45.08-.68l.06-.55c0-.22,0-.44.07-.66s0-.36,0-.53,0-.42.05-.63,0-.35,0-.52l0-.59c0-.17,0-.34,0-.5s0-.38,0-.57,0-.32,0-.47,0-.36,0-.53v-.46c0-.17,0-.33,0-.49l0-.43c0-.16,0-.31,0-.46s0-.28,0-.41,0-.28,0-.42l-.06-.38c0-.13-.05-.25-.08-.38s-.05-.23-.08-.35l-.09-.34a2.81,2.81,0,0,0-.1-.31,2.85,2.85,0,0,0-.12-.31c0-.09-.07-.19-.11-.28s-.09-.18-.14-.27-.09-.16-.14-.24a1.77,1.77,0,0,0-.16-.22l-.15-.21-.19-.18-.17-.16c-.07-.06-.15-.1-.22-.15l-.19-.11-.26-.1a.73.73,0,0,0-.19-.07c-.11,0-.22,0-.33-.06l-.17,0a2.64,2.64,0,0,0-.56,0l-.56.09-.18,0-.42.1-.22.06-.41.13-.24.08-.42.15-.24.1-.47.2-.22.09-.6.29-.1.05-.75.38-.14.08-.62.35-.25.14-.53.32-.29.18-.51.31-.31.21-.51.33-.32.21-.54.37-.31.22-.69.49-.43.31-.56.41-.45.34-.42.32-.5.38-.37.29-.54.43-.32.25-.6.48-.23.19c-10.05,8.19-21.8,20.44-28.59,27.79a45.77,45.77,0,0,0-14.11,1.94s-2.88-22.85-6-32c0-.11-.11-.34-.21-.65l-.13-.43c0-.11-.08-.22-.12-.35L131-52l-.39-1.18c0-.11-.07-.21-.11-.31s-.1-.32-.16-.48-.11-.33-.17-.5c-.15-.42-.3-.85-.46-1.28s-.39-1.07-.59-1.57l-.09-.2-.09-.22-.06-.16c0-.08-.07-.17-.11-.25l-.09-.21a1.42,1.42,0,0,0-.08-.18c0-.06,0-.13-.08-.19a1.42,1.42,0,0,1-.08-.18.91.91,0,0,1-.07-.14l-.1-.2-.09-.17-.07-.15a.75.75,0,0,1-.07-.12l-.09-.17,0-.07a1.74,1.74,0,0,0-.11-.18l-.05-.08-.1-.14-.06-.08-.09-.1-.06-.07-.07-.07-.07-.05a.18.18,0,0,0-.07,0h0a1.83,1.83,0,0,0-.61-.25c-4-1.06-9.46,8.18-11,10.51a75,75,0,0,0-7.26,13.54l0,.07a83.64,83.64,0,0,0-3.73,12c0,.06,0,.12,0,.17A110.46,110.46,0,0,0,101.9-5Z"/>
</g>
<g class="cls-2">
<path class="cls-3" d="M-31.07,167.31a4.32,4.32,0,0,1,.92,3.94c-1.18,4.36-3.28,14-.09,18.28a1.75,1.75,0,0,0,2.11.52,1.84,1.84,0,0,0,1.4-.85c2.22-3.56,7.84-11.62,14.91-15.12,3.69,2.57,9.88,4.36,16.71,4.92,2.54,5.33,4.73,9.09,5.89,10.22a1.7,1.7,0,0,0,3-1.05,45.59,45.59,0,0,0-.54-9.11l.36,0h.16c.7-.06,1.39-.13,2.09-.21l.18,0c.69-.09,1.38-.19,2.06-.31l.39-.07c.69-.12,1.37-.25,2.05-.41h0c.42-.1.84-.2,1.25-.32l.44-.13.83-.25.49-.18.73-.26.51-.21.67-.28.52-.24.62-.3.52-.27.58-.32.51-.3.54-.34.51-.33.5-.35.5-.37.47-.36.49-.41.43-.37.24-.21c1.93,4,3.57,6.73,4.58,7.59a1.81,1.81,0,0,0,3-1c.49-4.6-.37-10.64-1.39-15.66a31.39,31.39,0,0,0,1.7-14.74h0c0-.48-.11-1-.18-1.43v0h0c-.11-.71-.22-1.41-.36-2.13,0-.22-.09-.44-.13-.65a16.31,16.31,0,0,0,1.63-.34,14.76,14.76,0,1,0-15.71-23l-.37,0h-.07c-.35,0-.71.07-1.09.13h-.06l-1.19.21h0c-.41.08-.84.18-1.27.29h0l-.25.06a16.8,16.8,0,0,0-3.08,1.22A14.75,14.75,0,0,0-5.37,138.5,14.87,14.87,0,0,0-3.29,143c-2,2.68-3.78,5.42-5.38,8.1h0l-.09.15c-.71,1.19-1.38,2.37-2,3.53l0,.06h0c-1,1.94-1.92,3.81-2.64,5.56-5-6.28-15-17-26.67-19.57a2.31,2.31,0,0,0-2.68,1.49,2.24,2.24,0,0,0-.5,1.79C-42.65,148.33-40.2,156.66-31.07,167.31Z"/>
<path class="cls-3" d="M268.93,167.31a4.32,4.32,0,0,1,.92,3.94c-1.18,4.36-3.28,14-.09,18.28a1.75,1.75,0,0,0,2.11.52,1.84,1.84,0,0,0,1.4-.85c2.22-3.56,7.84-11.62,14.91-15.12,3.69,2.57,9.88,4.36,16.71,4.92,2.54,5.33,4.73,9.09,5.89,10.22a1.7,1.7,0,0,0,3-1.05,45.59,45.59,0,0,0-.54-9.11l.36,0h.16c.7-.06,1.39-.13,2.09-.21l.18,0c.69-.09,1.38-.19,2.06-.31l.39-.07c.69-.12,1.37-.25,2.05-.41h0c.42-.1.84-.2,1.25-.32l.44-.13.83-.25.49-.18.73-.26.51-.21.67-.28.52-.24.62-.3.52-.27.58-.32.51-.3.54-.34.51-.33.5-.35.5-.37.47-.36.49-.41.43-.37.24-.21c1.93,4,3.57,6.73,4.58,7.59a1.81,1.81,0,0,0,3-1c.49-4.6-.37-10.64-1.39-15.66a31.39,31.39,0,0,0,1.7-14.74h0c-.05-.48-.11-1-.18-1.43v0h0c-.11-.71-.22-1.41-.36-2.13-.05-.22-.09-.44-.13-.65a16.31,16.31,0,0,0,1.63-.34,14.76,14.76,0,1,0-15.71-23l-.37,0h-.07c-.35,0-.71.07-1.09.13h-.06l-1.19.21h0c-.41.08-.84.18-1.27.29h0l-.25.06a16.8,16.8,0,0,0-3.08,1.22,14.75,14.75,0,0,0-22.94,15.75,14.87,14.87,0,0,0,2.08,4.51c-2,2.68-3.78,5.42-5.38,8.1h0l-.09.15c-.71,1.19-1.38,2.37-2,3.53l0,.06h0c-1,1.94-1.92,3.81-2.64,5.56-5-6.28-15-17-26.67-19.57a2.31,2.31,0,0,0-2.68,1.49,2.24,2.24,0,0,0-.5,1.79C257.35,148.33,259.8,156.66,268.93,167.31Z"/>
</g>
<path class="cls-4" d="M218.92-168.35c-83.22-7.31-168,10.74-241.76,49.88A426.56,426.56,0,0,0-196.55,53.77c-39.29,72-59.45,156.3-52.29,238.34,3.59,41.24,14.41,82.64,36.69,117.9,20.75,32.82,51,58.15,85.57,75.39C-91.62,502.82-53.41,512.68-15,519c42.28,7,85.26,10.42,128,12.81,92.61,5.17,188.85,1.41,276.35-32.29,70.59-27.2,135.81-73.78,176.57-138.39,22-34.93,35.32-74.32,40-115.3,5.24-45.74-.32-92.19-11-136.78-10.88-45.58-27.15-89.7-45-133C534.49-61.48,517.31-99.3,490.17-130.1c-26.64-30.24-62.46-49.51-101.88-57.16-40.21-7.8-81.54-5-121.81.8-19.9,2.88-39.65,6.63-59.35,10.61-7.57,1.53-4.36,13.1,3.19,11.57,39.41-8,79.27-15.14,119.58-15.75,38.24-.57,77.38,5.19,110.92,24.56C475.33-135.53,499-103,516.88-68.15c19.49,37.88,34.9,78.43,48.54,118.73,28.23,83.42,45.28,176.31,12.26,261-26.77,68.68-83.48,122-147.54,156.21-76.67,41-164.65,53.59-250.64,53.91-45.72.16-91.45-2.87-136.94-7.31-37.63-3.68-75.31-9.08-111.69-19.67-35.28-10.27-69.75-25.77-97.65-50.1-29.7-25.91-49.46-60.32-60.19-98-21.91-77-11.11-162.8,17.44-236.59,28.83-74.5,78.86-141,143.78-187.7a427.93,427.93,0,0,1,226.22-79.72,417.72,417.72,0,0,1,58.45,1.06c7.7.67,7.65-11.33,0-12Z"/>
</svg>
