<?xml version="1.0" encoding="UTF-8"?>
<svg viewBox="0 0 300 300" xmlns="http://www.w3.org/2000/svg">
    <defs>
        <style>.cls-1{fill:none;}.cls-2{opacity:0.04;}.cls-3{fill:#fff;}.cls-4{fill:#e74e00;}</style>
    </defs>
    <rect class="cls-1" width="300" height="300"/>
    <g class="cls-2">
        <path class="cls-3" d="M100.27,320.42a161,161,0,0,0,12.15,43.5,4.32,4.32,0,0,0,2.39,2.32c17,7,32.2,6.72,36.87,5.93l15.36-4.1c20.54-7.8,32.56-23.22,33.57-30.4a7.37,7.37,0,0,0-2.83-6.88,21.28,21.28,0,0,1-5.13-5.58c-1-1.93-2.09-3.73-3.16-5.4a69.09,69.09,0,0,0-4.81-6.86c1.13-8.27,2.85-22.25,3.39-34.56a.76.76,0,0,0,0-.15c0-.41,0-.81,0-1.22,0-.12,0-.23,0-.35,0-.35,0-.71,0-1.06,0-.16,0-.32,0-.47,0-.32,0-.63,0-.94s0-.38,0-.57,0-.56,0-.83v-.64c0-.25,0-.51,0-.76s0-.45,0-.67V270c0-.23,0-.46,0-.68s0-.44,0-.66,0-.47,0-.7,0-.41,0-.62l0-.69,0-.58c0-.23,0-.46,0-.68l0-.56c0-.22,0-.44-.05-.66s0-.36-.05-.53l-.06-.63c0-.17,0-.34,0-.51s-.05-.4-.08-.6l-.06-.49c0-.19,0-.37-.08-.56s-.05-.32-.08-.47l-.09-.52-.09-.45c0-.16-.07-.32-.11-.48l-.09-.42-.12-.45c0-.13-.07-.26-.11-.39s-.09-.27-.13-.4l-.12-.36-.15-.37c0-.11-.08-.22-.13-.33s-.1-.21-.16-.32a2.64,2.64,0,0,0-.15-.29c-.05-.1-.11-.19-.16-.28s-.11-.18-.17-.26l-.18-.24c-.06-.07-.11-.15-.17-.21l-.21-.2-.18-.17c-.07-.06-.15-.1-.22-.15l-.2-.13-.24-.1-.2-.08a2.3,2.3,0,0,0-.28-.06,1.2,1.2,0,0,0-.2,0c-.11,0-.22,0-.33,0h-.18a2.88,2.88,0,0,0-.54.11l-.54.18-.17.07-.39.17-.21.1-.38.2-.22.12-.39.23-.22.13-.43.28-.19.13-.55.38-.09.07-.67.51-.12.1c-.19.15-.37.29-.55.45l-.23.19-.46.4-.26.23-.44.4-.28.25-.44.42-.28.26-.47.46-.26.26-.6.61-.37.38-.48.5-.39.42c-.11.13-.23.25-.35.38l-.42.47-.32.34-.46.52-.27.31-.51.57-.19.23c-8.48,9.8-17.92,23.91-23.33,32.33a45.88,45.88,0,0,0-13.56,4.36s-6.8-22-11.5-30.5c-.06-.1-.17-.31-.32-.6l-.21-.4-.17-.32-.18-.34c-.17-.34-.37-.71-.58-1.1-.06-.09-.11-.19-.16-.28l-.24-.45-.26-.45c-.21-.4-.44-.79-.67-1.19l-.86-1.44-.12-.19-.12-.2-.09-.14-.15-.23-.13-.19-.11-.16-.12-.18-.11-.16-.09-.13-.13-.18-.11-.14a1.71,1.71,0,0,0-.11-.14l-.08-.11-.12-.15-.06-.06-.14-.16-.07-.07-.12-.12s-.05,0-.07-.07l-.1-.08-.08-.06-.08-.06-.07,0-.08,0h0a1.81,1.81,0,0,0-.65-.14c-4.11-.36-7.9,9.69-9,12.26a75.52,75.52,0,0,0-4.79,14.59s0,.06,0,.08a83.7,83.7,0,0,0-1.6,12.43.91.91,0,0,1,0,.17A111.35,111.35,0,0,0,100.27,320.42Z"/>
        <path class="cls-3" d="M100.27,20.42a161,161,0,0,0,12.15,43.5,4.32,4.32,0,0,0,2.39,2.32c17,7,32.2,6.72,36.87,5.93L167,68.07c20.54-7.8,32.56-23.22,33.57-30.4a7.37,7.37,0,0,0-2.83-6.88,21.28,21.28,0,0,1-5.13-5.58c-1-1.93-2.09-3.73-3.16-5.4A69.09,69.09,0,0,0,184.68,13c1.13-8.27,2.85-22.25,3.39-34.56a.76.76,0,0,0,0-.15c0-.41,0-.81,0-1.22,0-.12,0-.23,0-.35,0-.35,0-.71,0-1.06,0-.16,0-.32,0-.47,0-.32,0-.63,0-.94s0-.38,0-.57,0-.56,0-.83v-.64c0-.25,0-.51,0-.76s0-.45,0-.67V-30c0-.23,0-.46,0-.68s0-.44,0-.66,0-.47,0-.7,0-.41,0-.62l0-.69,0-.58c0-.23,0-.46,0-.68l0-.56c0-.22,0-.44-.05-.66s0-.36-.05-.53l-.06-.63c0-.17,0-.34,0-.51s-.05-.4-.08-.6l-.06-.49c0-.19,0-.37-.08-.56s-.05-.32-.08-.47l-.09-.52-.09-.45c0-.16-.07-.32-.11-.48s-.06-.29-.09-.42l-.12-.45c0-.13-.07-.26-.11-.39s-.09-.27-.13-.4l-.12-.36-.15-.37c0-.11-.08-.22-.13-.33l-.16-.32a2.64,2.64,0,0,0-.15-.29c-.05-.1-.11-.19-.16-.28s-.11-.18-.17-.26l-.18-.24c-.06-.07-.11-.15-.17-.21l-.21-.2-.18-.17c-.07-.06-.15-.1-.22-.15l-.2-.13-.24-.1-.2-.08a2.3,2.3,0,0,0-.28-.06,1.2,1.2,0,0,0-.2,0h-.51a2.88,2.88,0,0,0-.54.11l-.54.18-.17.07-.39.17-.21.1-.38.2-.22.12-.39.23-.22.13-.43.28-.19.13-.55.38-.09.07-.67.51-.12.1c-.19.15-.37.29-.55.45l-.23.19-.46.4-.26.23-.44.4-.28.25-.44.42-.28.26-.47.46-.26.26-.6.61-.37.38-.48.5-.39.42c-.11.13-.23.25-.35.38l-.42.47-.32.34-.46.52-.27.31-.51.57-.19.23c-8.48,9.8-17.92,23.91-23.33,32.33a45.88,45.88,0,0,0-13.56,4.36s-6.8-22-11.5-30.5c-.06-.1-.17-.31-.32-.6l-.21-.4-.17-.32-.18-.34c-.17-.34-.37-.71-.58-1.1-.06-.09-.11-.19-.16-.28l-.24-.45-.26-.45c-.21-.4-.44-.79-.67-1.19L118-35.83l-.12-.19-.12-.2-.09-.14-.15-.23-.13-.19-.11-.16-.12-.18-.11-.16-.09-.13-.13-.18-.11-.14a1.71,1.71,0,0,0-.11-.14l-.08-.11-.12-.15-.06-.06-.14-.16-.07-.07-.12-.12s-.05,0-.07-.07l-.1-.08-.08-.06-.08-.06-.07,0-.08,0h0a1.81,1.81,0,0,0-.65-.14c-4.11-.36-7.9,9.69-9,12.26a75.52,75.52,0,0,0-4.79,14.59s0,.06,0,.08A83.7,83.7,0,0,0,99.46.34a.91.91,0,0,1,0,.17A111.35,111.35,0,0,0,100.27,20.42Z"/>
    </g>
    <g class="cls-2">
        <path class="cls-3" d="M-40.32,187.88a4.35,4.35,0,0,1,1.59,3.73c-.4,4.49-.79,14.39,3.08,18a1.77,1.77,0,0,0,2.18.15,1.82,1.82,0,0,0,1.22-1.08c1.58-3.89,5.71-12.81,12.07-17.48,4.07,1.89,10.48,2.57,17.31,1.94,3.42,4.81,6.23,8.13,7.57,9a1.7,1.7,0,0,0,2.74-1.54,45.42,45.42,0,0,0-2.12-8.88l.36-.1.16,0c.67-.17,1.34-.36,2-.56L8,191q1-.3,2-.66l.37-.13c.66-.24,1.3-.49,1.94-.76l0,0,1.18-.53.4-.2.78-.4.45-.26c.23-.12.45-.25.67-.38l.47-.3c.21-.13.41-.25.61-.39l.47-.33c.19-.13.38-.26.56-.4l.46-.36.52-.41.45-.39.48-.42.44-.42.43-.43.43-.45.4-.44.41-.48.36-.44.21-.25c2.58,3.56,4.68,6,5.82,6.68a1.8,1.8,0,0,0,2.75-1.52c-.3-4.61-2.2-10.41-4.08-15.18a31.32,31.32,0,0,0-.88-14.81h0q-.2-.69-.42-1.38v0h0c-.22-.67-.46-1.35-.72-2l-.24-.62c.52-.18,1-.38,1.54-.61A14.76,14.76,0,1,0,6.83,132.32l-.36.09-.07,0c-.34.09-.69.2-1.05.31l-.06,0-1.13.42h0c-.39.16-.79.33-1.2.52h0l-.24.1a16.31,16.31,0,0,0-2.81,1.73,14.74,14.74,0,0,0-12.73-.12A14.77,14.77,0,0,0-20,155.05a15,15,0,0,0,2.84,4.08c-1.46,3-2.78,6-3.9,8.91h0a1.42,1.42,0,0,0-.05.16c-.5,1.3-.95,2.58-1.36,3.83,0,0,0,0,0,.06h0A58.47,58.47,0,0,0-24.14,178c-6-5.32-17.76-14.16-29.67-14.65a2.31,2.31,0,0,0-2.38,1.94,2.25,2.25,0,0,0-.19,1.84C-55,171.2-51.16,179-40.32,187.88Z"/>
        <path class="cls-3" d="M259.68,187.88a4.35,4.35,0,0,1,1.59,3.73c-.4,4.49-.79,14.39,3.08,18a1.77,1.77,0,0,0,2.18.15,1.82,1.82,0,0,0,1.22-1.08c1.58-3.89,5.71-12.81,12.07-17.48,4.07,1.89,10.48,2.57,17.31,1.94,3.42,4.81,6.23,8.13,7.57,9a1.7,1.7,0,0,0,2.74-1.54,45.42,45.42,0,0,0-2.12-8.88l.36-.1.16,0c.67-.17,1.34-.36,2-.56L308,191q1-.3,2-.66l.37-.13c.66-.24,1.3-.49,1.94-.76l0,0,1.18-.53.4-.2.78-.4.45-.26c.23-.12.45-.25.67-.38l.47-.3c.21-.13.41-.25.61-.39l.47-.33c.19-.13.38-.26.56-.4l.46-.36.52-.41.45-.39.48-.42.44-.42c.14-.15.29-.29.43-.43l.43-.45.4-.44.41-.48.36-.44.21-.25c2.58,3.56,4.68,6,5.82,6.68a1.8,1.8,0,0,0,2.75-1.52c-.3-4.61-2.2-10.41-4.08-15.18a31.32,31.32,0,0,0-.88-14.81h0q-.19-.69-.42-1.38v0h0c-.22-.67-.46-1.35-.72-2l-.24-.62c.52-.18,1-.38,1.54-.61a14.76,14.76,0,1,0-19.46-19.93l-.36.09-.07,0c-.34.09-.69.2-1,.31l-.06,0-1.13.42h0c-.39.16-.79.33-1.2.52h0l-.24.1a16.31,16.31,0,0,0-2.81,1.73A14.76,14.76,0,0,0,280,155.05a15,15,0,0,0,2.84,4.08c-1.46,3-2.78,6-3.9,8.91h0a1.42,1.42,0,0,0-.05.16c-.5,1.3-.95,2.58-1.36,3.83,0,0,0,0,0,.06h0a58.47,58.47,0,0,0-1.63,5.94c-6-5.32-17.76-14.16-29.67-14.65a2.31,2.31,0,0,0-2.38,1.94,2.25,2.25,0,0,0-.19,1.84C245,171.2,248.84,179,259.68,187.88Z"/>
    </g>
    <path class="cls-4" d="M274.78-132.85C174.43-132.12,75-112.11-19.54-78.92-63.43-63.5-107.42-46-148.34-23.79c-36.67,20-71.61,46-92.66,82.86-43.75,76.58-17.75,172.88,21.93,245.27,38.35,70,95.07,129.16,161.58,173s142.81,72.42,221.79,82c83.69,10.19,169.41-1.74,248.25-31.09a585,585,0,0,0,211.66-136.9c59.59-60.46,121-143.57,96.42-233.22C708.81,115,681.54,77.66,652.09,44.83A656.17,656.17,0,0,0,556-43.07c-69-51.42-149.64-89.22-235.51-100.11a399.86,399.86,0,0,0-62.74-3c-1.93.06-1.93,3.06,0,3,85.73-2.67,169.58,23.69,243,66.92A616.76,616.76,0,0,1,604,.54c32.4,29.68,63.52,62.47,87,99.78,24,38.13,38.1,82.05,30,127.25-8,44.93-33.51,84.92-61.72,119.92-52.47,65.1-119.57,118.12-194.55,155s-158.29,57.61-242,57.42C143.51,559.73,65,540-5.55,504.05c-70.14-35.75-132.51-87.38-179-151-23.62-32.33-43.57-67.88-57.28-105.55C-256.91,206-265.1,160.52-257.9,116.62c7-42.8,29.84-79.11,63.24-106.37,33.82-27.61,74.5-45.87,114.48-62.62,90.49-37.91,186.24-64.56,284.08-73.86q35.34-3.36,70.88-3.62a1.5,1.5,0,0,0,0-3Z"/>
</svg>
